<svg xmlns="http://www.w3.org/2000/svg" viewBox="0 0 683.68 195.36"><title>logo</title><g id="Camada_2" data-name="Camada 2"><g id="Camada_1-2" data-name="Camada 1"><path d="M37.76,163.29h62v29.93H0V5H37.76Z"/><path d="M240,5V35.46H161.54V83.74h60.14v29.93H161.54v79.56H123.78V5Z"/><path d="M265.08,22A43.31,43.31,0,0,1,281.61,5.83,48.58,48.58,0,0,1,329.77,7a39.78,39.78,0,0,1,16.08,19.79H328.3a23.54,23.54,0,0,0-9.61-10.5,28.51,28.51,0,0,0-14.22-3.46,31.09,31.09,0,0,0-15.76,4,27.65,27.65,0,0,0-10.82,11.4A36.62,36.62,0,0,0,274,45.48a36.6,36.6,0,0,0,3.91,17.29,28.06,28.06,0,0,0,10.82,11.47,30.69,30.69,0,0,0,15.76,4,28.51,28.51,0,0,0,14.22-3.46,23.53,23.53,0,0,0,9.61-10.5h17.55A39.43,39.43,0,0,1,329.77,84,46.78,46.78,0,0,1,304.47,91a46,46,0,0,1-22.93-5.83,43.44,43.44,0,0,1-16.46-16.21A45.47,45.47,0,0,1,259,45.48,45.47,45.47,0,0,1,265.08,22Z"/><path d="M387,12.94V39.07h30.75V51H387V78.27h34.59V90.19H372.39V1h49.19V12.94Z"/><path d="M499.64,90.19l-20.5-35.61H468V90.19H453.4v-89h30.75q10.25,0,17.36,3.59a24.9,24.9,0,0,1,10.63,9.61,26.15,26.15,0,0,1,3.52,13.45,26.66,26.66,0,0,1-5.06,15.82q-5.06,7.11-15.56,9.67l22,36.89ZM468,42.92h16.14q8.2,0,12.36-4.1t4.16-11q0-6.92-4.1-10.82t-12.43-3.91H468Z"/><path d="M608.92,1.15l-33.44,89H558.58L525,1.15h15.63L567,75.2l26.52-74Z"/><path d="M635,12.94V39.07h30.75V51H635V78.27h34.59V90.19H620.38V1h49.19V12.94Z"/><path d="M315.33,105.43v64.18q0,11.91-7.24,18.83t-19,6.92q-11.79,0-19-6.92t-7.24-18.83h14.73q.13,5.89,3,9.35t8.52,3.46q5.64,0,8.58-3.52a14,14,0,0,0,2.95-9.29V105.43Z"/><path d="M414.1,176.27H376.82l-6.4,18.19H355.17l31.9-89.16H404l31.9,89.16H420.5ZM410,164.36,395.52,123l-14.6,41.38Z"/><path d="M499.83,194.47l-20.5-35.61H468.19v35.61h-14.6v-89h30.75q10.25,0,17.36,3.59a24.9,24.9,0,0,1,10.63,9.61,26.15,26.15,0,0,1,3.52,13.45,26.66,26.66,0,0,1-5.06,15.82q-5.06,7.11-15.56,9.67l22,36.89Zm-31.64-47.27h16.14q8.2,0,12.36-4.1t4.16-11q0-6.92-4.1-10.82t-12.43-3.91H468.19Z"/><path d="M574.92,105.43v89h-14.6v-89Z"/><path d="M661.9,176.27H624.62l-6.4,18.19H603l31.9-89.16h16.91l31.9,89.16H668.31Zm-4.1-11.91L643.32,123l-14.6,41.38Z"/></g></g></svg>